<?xml version="1.0" encoding="UTF-8" standalone="no"?>
<svg
   xmlns:dc="http://purl.org/dc/elements/1.1/"
   xmlns:cc="http://creativecommons.org/ns#"
   xmlns:rdf="http://www.w3.org/1999/02/22-rdf-syntax-ns#"
   xmlns:svg="http://www.w3.org/2000/svg"
   xmlns="http://www.w3.org/2000/svg"
   xmlns:sodipodi="http://sodipodi.sourceforge.net/DTD/sodipodi-0.dtd"
   xmlns:inkscape="http://www.inkscape.org/namespaces/inkscape"
   version="1.2"
   width="800"
   height="400"
   viewBox="0 0 800 400"
   xml:space="preserve"
   style="overflow:visible"
   id="svg2985"
   inkscape:version="0.48.3.1 r9886"
   sodipodi:docname="Craps_table_layout.svg"><metadata
   id="metadata3204"><rdf:RDF><cc:Work
       rdf:about=""><dc:format>image/svg+xml</dc:format><dc:type
         rdf:resource="http://purl.org/dc/dcmitype/StillImage" /><dc:title>Craps table layout</dc:title></cc:Work></rdf:RDF></metadata><defs
   id="defs3202" /><sodipodi:namedview
   pagecolor="#ffffff"
   bordercolor="#666666"
   borderopacity="1"
   objecttolerance="10"
   gridtolerance="10"
   guidetolerance="10"
   inkscape:pageopacity="0"
   inkscape:pageshadow="2"
   inkscape:window-width="1154"
   inkscape:window-height="812"
   id="namedview3200"
   showgrid="false"
   inkscape:zoom="2.79"
   inkscape:cx="722.07067"
   inkscape:cy="102.67151"
   inkscape:window-x="57"
   inkscape:window-y="31"
   inkscape:window-maximized="0"
   inkscape:current-layer="svg2985" />
	
<title
   id="title2987">Craps table layout</title>
<desc
   id="desc2989">First published Betzaar.com under the CreativeCommons Attribution+ShareAlike licence</desc>

<rect
   width="800"
   height="400"
   x="0"
   y="0"
   id="rect3"
   style="fill:#093;fill-opacity:1" />
<text
   transform="matrix(1.25,0,0,1,176.8159,314.6299)"
   id="text5"
   style="font-size:23.25510788px;font-weight:bold;fill:#fff;font-family:Times New Roman;"><tspan
     id="tspan3380"
     style="font-size:23.25510788px;font-weight:bold;line-height:100%;letter-spacing:1.78885436px;font-family:Times New Roman;">PASS LINE</tspan></text>




<g
   id="g9">
		<rect
   width="375.00101"
   height="100"
   x="163.75"
   y="25.211"
   id="rect11"
   style="fill:none;stroke:#fff;stroke-width:2" />
		<line
   style="fill:none;stroke:#fff;stroke-width:2"
   id="line13"
   y2="117.711"
   x2="538.75098"
   y1="117.711"
   x1="163.75" />
		<line
   style="fill:none;stroke:#fff;stroke-width:2"
   id="line15"
   y2="55.835999"
   x2="538.75098"
   y1="55.835999"
   x1="163.75" />
		<line
   style="fill:none;stroke:#fff;stroke-width:2"
   id="line17"
   y2="47.396"
   x2="538.75098"
   y1="47.396"
   x1="163.75" />
		<line
   style="fill:none;stroke:#fff;stroke-width:2"
   id="line19"
   y2="125.211"
   x2="476.21701"
   y1="25.211"
   x1="476.21701" />
		<line
   style="fill:none;stroke:#fff;stroke-width:2"
   id="line21"
   y2="125.211"
   x2="413.78"
   y1="25.211"
   x1="413.78" />
		<line
   style="fill:none;stroke:#fff;stroke-width:2"
   id="line23"
   y2="125.211"
   x2="351.25"
   y1="25.211"
   x1="351.25" />
		<line
   style="fill:none;stroke:#fff;stroke-width:2"
   id="line25"
   y2="125.211"
   x2="288.72"
   y1="25.211"
   x1="288.72" />
		<line
   style="fill:none;stroke:#fff;stroke-width:2"
   id="line27"
   y2="125.211"
   x2="226.28"
   y1="25.211"
   x1="226.28" />
	</g><text
   x="183.31931"
   y="99.567902"
   id="text29"
   style="font-size:40px;font-weight:bold;fill:#ff0;font-family:Times New Roman;">4</text>



<text
   x="245.99409"
   y="99.567902"
   id="text31"
   style="font-size:40px;font-weight:bold;fill:#ff0;font-family:Times New Roman;">5</text>



<text
   x="371.45901"
   y="99.567902"
   id="text33"
   style="font-size:40px;font-weight:bold;fill:#ff0;font-family:Times New Roman;">8</text>



<text
   x="487.56451"
   y="99.567902"
   id="text35"
   style="font-size:40px;font-weight:bold;fill:#ff0;font-family:Times New Roman;">10</text>



<text
   x="252.25604"
   y="197.99071"
   transform="matrix(0.93969996,-0.34199998,0.34199998,0.93969996,0,0)"
   id="text37"
   style="font-size:22px;fill:#ff0;font-family:Times New Roman"><tspan
     id="tspan4952"
     style="font-weight:bold;">SIX</tspan></text>



<text
   x="362.96365"
   y="241.1116"
   transform="matrix(0.93969996,-0.34199998,0.34199998,0.93969996,0,0)"
   id="text39"
   style="font-size:22px;fill:#ff0;font-family:Times New Roman"><tspan
     id="tspan4954"
     style="font-weight:bold;">NINE</tspan></text>




<rect
   width="62.5"
   height="100"
   x="101.25"
   y="25.211"
   id="rect41"
   style="fill:none;stroke:#fff;stroke-width:2" />
<text
   transform="matrix(1.0976,0,0,1,192.2163,172.332)"
   id="text43"
   style="font-size:43.93149948px;font-weight:bold;fill:#f00;font-family:Times New Roman;"><tspan
     id="tspan3396"
     style="font-size:45.8162117px;font-weight:bold;fill:#f00;fill-opacity:1;font-family:Times New Roman;">COME</tspan></text>




<text
   x="270.75"
   y="238.21001"
   id="text47"
   style="font-size:24px;fill:#ff0;font-family:Times New Roman"><tspan
     id="tspan4956"
     style="font-weight:bold;">FIELD</tspan></text>





<text
   x="193.53081"
   y="223.3662"
   id="text51"
   style="font-size:22px;font-weight:bold;fill:#ff0;font-family:Times New Roman;">2</text>



<circle
   cx="203.093"
   cy="218.052"
   r="17.5"
   transform="translate(-4,-2)"
   id="circle53"
   style="fill:none;stroke:#ff0;stroke-width:2" /><text
   x="408.5"
   y="222.1162"
   id="text55"
   style="font-size:22px;font-weight:bold;fill:#ff0;font-family:Times New Roman;">12</text>



<circle
   cx="419.62399"
   cy="218.052"
   r="17.5"
   transform="translate(0,-2)"
   id="circle57"
   style="fill:none;stroke:#ff0;stroke-width:2" />
<text
   transform="matrix(-5.463924e-8,1.25,-1,-4.371139e-8,37.2515,83.5156)"
   id="text59"
   style="font-size:20px;font-weight:bold;fill:#fff;font-family:Times New Roman;"><tspan
     id="tspan3435"
     style="font-size:19.67739868px;font-weight:bold;">PASS LINE</tspan></text>




<text
   x="207.69261"
   y="110.07185"
   transform="matrix(0.70710678,0.70710678,-0.70710678,0.70710678,0,0)"
   id="text63"
   style="font-size:47.49954605px;font-weight:bold;fill:#f00;font-family:Arial-BoldMT;"><tspan
     id="tspan3384"
     style="font-size:48px;font-style:normal;font-variant:normal;font-weight:bold;font-stretch:normal;font-family:Times New Roman;">6</tspan></text>



<text
   x="265.61694"
   y="110.60246"
   transform="matrix(0.70710678,0.70710678,-0.70710678,0.70710678,0,0)"
   id="text65"
   style="font-size:47.49954605px;font-weight:bold;fill:#f00;font-family:Arial-BoldMT;"><tspan
     id="tspan3386"
     style="font-size:48px;font-style:normal;font-variant:normal;font-weight:bold;font-stretch:normal;font-family:Times New Roman;">8</tspan></text>





<rect
   width="312.5"
   height="37.5"
   x="163.75"
   y="250.211"
   id="rect75"
   style="fill:none;stroke:#fff;stroke-width:2" />
<text
   transform="translate(110.9746,51.4604)"
   id="text77"
   style="font-size:18px;font-weight:bold;font-family:Times New Roman;"><tspan
     x="0"
     y="0"
     id="tspan79"
     style="font-size:18px;font-weight:bold;fill:#fff;font-family:Times New Roman;">Don’t</tspan><tspan
     x="-0.479"
     y="17.5"
     id="tspan81"
     style="font-size:18px;font-weight:bold;fill:#fff;font-family:Times New Roman;">Come</tspan><tspan
     x="7.2930002"
     y="35"
     id="tspan83"
     style="font-size:18px;font-weight:bold;fill:#fff;font-family:Times New Roman;">Bar</tspan></text>




<g
   id="g85">
	<g
   id="g87">
		<g
   id="g89">
			<path
   d="m 148.489,95.567 h -12 c -0.83,0 -1.5,0.671 -1.5,1.5 v 12.001 c 0,0.829 0.67,1.5 1.5,1.5 h 12 c 0.83,0 1.5,-0.67 1.5,-1.5 V 97.066 c -0.001,-0.828 -0.671,-1.499 -1.5,-1.499 z m -10.456,13.5 c -0.827,0 -1.5,-0.672 -1.5,-1.5 0,-0.829 0.672,-1.501 1.5,-1.501 0.828,0 1.5,0.672 1.5,1.501 0,0.829 -0.672,1.5 -1.5,1.5 z m 0,-4.501 c -0.827,0 -1.5,-0.67 -1.5,-1.5 0,-0.829 0.672,-1.5 1.5,-1.5 0.828,0 1.5,0.671 1.5,1.5 0,0.83 -0.672,1.5 -1.5,1.5 z m 0,-4.498 c -0.827,0 -1.5,-0.673 -1.5,-1.501 0,-0.828 0.672,-1.5 1.5,-1.5 0.828,0 1.5,0.673 1.5,1.5 0,0.828 -0.672,1.501 -1.5,1.501 z m 8.82,8.999 c -0.827,0 -1.5,-0.672 -1.5,-1.5 0,-0.829 0.673,-1.501 1.5,-1.501 0.828,0 1.5,0.672 1.5,1.501 -0.001,0.829 -0.672,1.5 -1.5,1.5 z m 0,-4.501 c -0.827,0 -1.5,-0.67 -1.5,-1.5 0,-0.829 0.673,-1.5 1.5,-1.5 0.828,0 1.5,0.671 1.5,1.5 -0.001,0.83 -0.672,1.5 -1.5,1.5 z m 0,-4.498 c -0.827,0 -1.5,-0.673 -1.5,-1.501 0,-0.828 0.673,-1.5 1.5,-1.5 0.828,0 1.5,0.673 1.5,1.5 -0.001,0.828 -0.672,1.501 -1.5,1.501 z"
   id="path91"
   style="fill:#ff0" />
		</g>
	</g>
	<g
   id="g93">
		<g
   id="g95">
			<path
   d="m 128.239,95.567 h -12.001 c -0.829,0 -1.5,0.671 -1.5,1.5 v 12.001 c 0,0.829 0.67,1.5 1.5,1.5 h 12.001 c 0.828,0 1.5,-0.67 1.5,-1.5 V 97.066 c 0,-0.828 -0.672,-1.499 -1.5,-1.499 z m -10.455,13.5 c -0.828,0 -1.5,-0.672 -1.5,-1.5 0,-0.829 0.672,-1.501 1.5,-1.501 0.828,0 1.5,0.672 1.5,1.501 -0.001,0.829 -0.673,1.5 -1.5,1.5 z m 0,-4.501 c -0.828,0 -1.5,-0.67 -1.5,-1.5 0,-0.829 0.672,-1.5 1.5,-1.5 0.828,0 1.5,0.671 1.5,1.5 -0.001,0.83 -0.673,1.5 -1.5,1.5 z m 0,-4.498 c -0.828,0 -1.5,-0.673 -1.5,-1.501 0,-0.828 0.672,-1.5 1.5,-1.5 0.828,0 1.5,0.673 1.5,1.5 -0.001,0.828 -0.673,1.501 -1.5,1.501 z m 8.819,8.999 c -0.827,0 -1.5,-0.672 -1.5,-1.5 0,-0.829 0.673,-1.501 1.5,-1.501 0.829,0 1.5,0.672 1.5,1.501 0,0.829 -0.672,1.5 -1.5,1.5 z m 0,-4.501 c -0.827,0 -1.5,-0.67 -1.5,-1.5 0,-0.829 0.673,-1.5 1.5,-1.5 0.829,0 1.5,0.671 1.5,1.5 0,0.83 -0.672,1.5 -1.5,1.5 z m 0,-4.498 c -0.827,0 -1.5,-0.673 -1.5,-1.501 0,-0.828 0.673,-1.5 1.5,-1.5 0.829,0 1.5,0.673 1.5,1.5 0,0.828 -0.672,1.501 -1.5,1.501 z"
   id="path97"
   style="fill:#ff0" />
		</g>
	</g>
</g>
<text
   transform="translate(178.1113,275.4678)"
   id="text99"
   style="font-size:22.5px;font-weight:bold;fill:#fff;font-family:Times New Roman;-inkscape-font-specification:'Times New Roman, Bold Italic'"><tspan
     id="tspan3433"
     style="font-size:22px;font-style:italic;font-weight:bold;-inkscape-font-specification:'Times New Roman, Bold Italic'">Don’t Pass Bar</tspan></text>




<g
   id="g101">
	<g
   id="g103">
		<path
   d="m 361.25,262.064 h -11.998 c -0.83,0 -1.5,0.671 -1.5,1.5 v 12.001 c 0,0.827 0.67,1.499 1.5,1.499 h 11.998 c 0.831,0 1.502,-0.672 1.502,-1.499 v -12.001 c 0,-0.829 -0.671,-1.5 -1.502,-1.5 z m -10.453,13.501 c -0.827,0 -1.501,-0.672 -1.501,-1.499 0,-0.83 0.674,-1.502 1.501,-1.502 0.828,0 1.502,0.672 1.502,1.502 0,0.828 -0.674,1.499 -1.502,1.499 z m 0,-4.501 c -0.827,0 -1.501,-0.671 -1.501,-1.5 0,-0.828 0.674,-1.5 1.501,-1.5 0.828,0 1.502,0.672 1.502,1.5 0,0.83 -0.674,1.5 -1.502,1.5 z m 0,-4.5 c -0.827,0 -1.501,-0.672 -1.501,-1.501 0,-0.827 0.674,-1.499 1.501,-1.499 0.828,0 1.502,0.672 1.502,1.499 0,0.83 -0.674,1.501 -1.502,1.501 z m 8.818,9.001 c -0.826,0 -1.5,-0.672 -1.5,-1.499 0,-0.83 0.674,-1.502 1.5,-1.502 0.829,0 1.502,0.672 1.502,1.502 0,0.828 -0.673,1.499 -1.502,1.499 z m 0,-4.501 c -0.826,0 -1.5,-0.671 -1.5,-1.5 0,-0.828 0.674,-1.5 1.5,-1.5 0.829,0 1.502,0.672 1.502,1.5 0,0.83 -0.673,1.5 -1.502,1.5 z m 0,-4.5 c -0.826,0 -1.5,-0.672 -1.5,-1.501 0,-0.827 0.674,-1.499 1.5,-1.499 0.829,0 1.502,0.672 1.502,1.499 0,0.83 -0.673,1.501 -1.502,1.501 z"
   id="path105"
   style="fill:#ff0" />
	</g>
</g>
<g
   id="g107">
	<g
   id="g109">
		<path
   d="m 341.002,262.064 h -12 c -0.83,0 -1.502,0.671 -1.502,1.5 v 12.001 c 0,0.827 0.672,1.499 1.502,1.499 h 12 c 0.828,0 1.498,-0.672 1.498,-1.499 v -12.001 c 0,-0.829 -0.67,-1.5 -1.498,-1.5 z m -10.456,13.501 c -0.827,0 -1.498,-0.672 -1.498,-1.499 0,-0.83 0.671,-1.502 1.498,-1.502 0.829,0 1.501,0.672 1.501,1.502 0,0.828 -0.672,1.499 -1.501,1.499 z m 0,-4.501 c -0.827,0 -1.498,-0.671 -1.498,-1.5 0,-0.828 0.671,-1.5 1.498,-1.5 0.829,0 1.501,0.672 1.501,1.5 0,0.83 -0.672,1.5 -1.501,1.5 z m 0,-4.5 c -0.827,0 -1.498,-0.672 -1.498,-1.501 0,-0.827 0.671,-1.499 1.498,-1.499 0.829,0 1.501,0.672 1.501,1.499 0,0.83 -0.672,1.501 -1.501,1.501 z m 8.818,9.001 c -0.825,0 -1.498,-0.672 -1.498,-1.499 0,-0.83 0.673,-1.502 1.498,-1.502 0.83,0 1.501,0.672 1.501,1.502 0,0.828 -0.671,1.499 -1.501,1.499 z m 0,-4.501 c -0.825,0 -1.498,-0.671 -1.498,-1.5 0,-0.828 0.673,-1.5 1.498,-1.5 0.83,0 1.501,0.672 1.501,1.5 0,0.83 -0.671,1.5 -1.501,1.5 z m 0,-4.5 c -0.825,0 -1.498,-0.672 -1.498,-1.501 0,-0.827 0.673,-1.499 1.498,-1.499 0.83,0 1.501,0.672 1.501,1.499 0,0.83 -0.671,1.501 -1.501,1.501 z"
   id="path111"
   style="fill:#ff0" />
	</g>
</g>
<line
   x1="101.25"
   y1="125.211"
   x2="101.25"
   y2="187.711"
   id="line113"
   style="fill:none;stroke:#fff;stroke-width:2" />
<text
   x="51.626495"
   y="-78.735405"
   transform="matrix(-4.371139e-8,1,-1,-4.371139e-8,0,0)"
   id="text115"
   style="font-size:15px;font-weight:bold;fill:#fff;font-family:Times New Roman;-inkscape-font-specification:'Times New Roman, Bold Italic'"><tspan
     id="tspan3429"
     style="font-size:15px;font-style:italic;font-weight:bold;-inkscape-font-specification:'Times New Roman, Bold Italic'">Don’t Pass Bar</tspan></text>




<g
   transform="translate(0,4)"
   id="g117">
	<g
   id="g119">
		<path
   d="M 87.427,166.257 H 77.7 c -0.671,0 -1.216,0.544 -1.216,1.216 v 9.726 c 0,0.673 0.544,1.216 1.216,1.216 h 9.727 c 0.671,0 1.216,-0.543 1.216,-1.216 v -9.726 c 0,-0.672 -0.544,-1.216 -1.216,-1.216 z m -8.51,10.831 c -0.671,0 -1.216,-0.545 -1.216,-1.215 0,-0.671 0.544,-1.216 1.216,-1.216 0.672,0 1.216,0.545 1.216,1.216 0,0.67 -0.544,1.215 -1.216,1.215 z m 0,-7.147 c -0.671,0 -1.216,-0.546 -1.216,-1.216 0,-0.671 0.544,-1.216 1.216,-1.216 0.672,0 1.216,0.545 1.216,1.216 0,0.671 -0.544,1.216 -1.216,1.216 z m 3.647,7.147 c -0.672,0 -1.216,-0.545 -1.216,-1.215 0,-0.671 0.544,-1.216 1.216,-1.216 0.671,0 1.215,0.545 1.215,1.216 0.001,0.67 -0.544,1.215 -1.215,1.215 z m 0,-7.147 c -0.672,0 -1.216,-0.546 -1.216,-1.216 0,-0.671 0.544,-1.216 1.216,-1.216 0.671,0 1.215,0.545 1.215,1.216 0.001,0.671 -0.544,1.216 -1.215,1.216 z m 3.647,7.147 c -0.672,0 -1.216,-0.545 -1.216,-1.215 0,-0.671 0.544,-1.216 1.216,-1.216 0.671,0 1.216,0.545 1.216,1.216 0,0.67 -0.544,1.215 -1.216,1.215 z m 0,-7.147 c -0.672,0 -1.216,-0.546 -1.216,-1.216 0,-0.671 0.544,-1.216 1.216,-1.216 0.671,0 1.216,0.545 1.216,1.216 0,0.671 -0.544,1.216 -1.216,1.216 z"
   id="path121"
   style="fill:#ff0" />
	</g>
</g>
<g
   transform="translate(0,4)"
   id="g123">
	<g
   id="g125">
		<path
   d="M 87.427,149.844 H 77.7 c -0.671,0 -1.216,0.544 -1.216,1.216 v 9.726 c 0,0.672 0.544,1.216 1.216,1.216 h 9.727 c 0.671,0 1.216,-0.544 1.216,-1.216 v -9.726 c 0,-0.672 -0.544,-1.216 -1.216,-1.216 z m -8.51,10.832 c -0.671,0 -1.216,-0.545 -1.216,-1.216 0,-0.671 0.544,-1.216 1.216,-1.216 0.672,0 1.216,0.545 1.216,1.216 0,0.671 -0.544,1.216 -1.216,1.216 z m 0,-7.147 c -0.671,0 -1.216,-0.546 -1.216,-1.216 0,-0.672 0.544,-1.216 1.216,-1.216 0.672,0 1.216,0.544 1.216,1.216 0,0.67 -0.544,1.216 -1.216,1.216 z m 3.647,7.147 c -0.672,0 -1.216,-0.545 -1.216,-1.216 0,-0.671 0.544,-1.216 1.216,-1.216 0.671,0 1.215,0.545 1.215,1.216 0,0.671 -0.544,1.216 -1.215,1.216 z m 0,-7.147 c -0.672,0 -1.216,-0.546 -1.216,-1.216 0,-0.672 0.544,-1.216 1.216,-1.216 0.671,0 1.215,0.544 1.215,1.216 0.001,0.67 -0.544,1.216 -1.215,1.216 z m 3.647,7.147 c -0.672,0 -1.216,-0.545 -1.216,-1.216 0,-0.671 0.544,-1.216 1.216,-1.216 0.671,0 1.216,0.545 1.216,1.216 0,0.671 -0.544,1.216 -1.216,1.216 z m 0,-7.147 c -0.672,0 -1.216,-0.546 -1.216,-1.216 0,-0.672 0.544,-1.216 1.216,-1.216 0.671,0 1.216,0.544 1.216,1.216 0,0.67 -0.544,1.216 -1.216,1.216 z"
   id="path127"
   style="fill:#ff0" />
	</g>
</g>
<line
   x1="549.375"
   y1="348.91599"
   x2="774.375"
   y2="348.91599"
   id="line129"
   style="fill:none;stroke:#fff;stroke-width:2" />
<line
   x1="549.375"
   y1="305.06799"
   x2="774.375"
   y2="305.06799"
   id="line131"
   style="fill:none;stroke:#fff;stroke-width:2" />
<line
   x1="549.375"
   y1="261.22101"
   x2="774.375"
   y2="261.22101"
   id="line133"
   style="fill:none;stroke:#fff;stroke-width:2" />
<line
   x1="549.375"
   y1="217.37399"
   x2="774.375"
   y2="217.37399"
   id="line135"
   style="fill:none;stroke:#fff;stroke-width:2" />
<line
   x1="549.375"
   y1="173.52699"
   x2="774.375"
   y2="173.52699"
   id="line137"
   style="fill:none;stroke:#fff;stroke-width:2" />
<g
   id="g139">
	<line
   x1="476.25"
   y1="125.211"
   x2="476.25"
   y2="250.211"
   id="line141"
   style="fill:none;stroke:#fff;stroke-width:2" />
	<line
   x1="163.75"
   y1="250.211"
   x2="101.25"
   y2="187.711"
   id="line143"
   style="fill:none;stroke:#fff;stroke-width:2" />
	<line
   x1="63.125"
   y1="188.336"
   x2="475.625"
   y2="188.336"
   id="line145"
   style="fill:none;stroke:#fff;stroke-width:2" />
	<line
   x1="123.679"
   y1="228.504"
   x2="132.429"
   y2="219.661"
   id="line147"
   style="fill:none;stroke:#fff;stroke-width:2" />
</g>
<g
   id="g149">
	<line
   x1="63.75"
   y1="50.835999"
   x2="63.75"
   y2="250.836"
   id="line151"
   style="fill:none;stroke:#fff;stroke-width:2" />
	<line
   x1="163.75"
   y1="287.711"
   x2="101.25"
   y2="287.711"
   id="line153"
   style="fill:none;stroke:#fff;stroke-width:2" />
	<path
   d="m 63.75,250.211 c 0,20.728 16.772,37.5 37.5,37.5"
   id="path155"
   style="fill:none;stroke:#fff;stroke-width:2" />
	<line
   x1="75.914001"
   y1="276.77301"
   x2="84.664001"
   y2="267.931"
   id="line157"
   style="fill:none;stroke:#fff;stroke-width:2" />
</g>
<g
   id="g159">
	<line
   x1="100.751"
   y1="25"
   x2="25.063999"
   y2="76.928001"
   id="line161"
   style="fill:none;stroke:#fff;stroke-width:2" />
	<line
   x1="25.625"
   y1="75.835999"
   x2="25.625"
   y2="250.836"
   id="line163"
   style="fill:none;stroke:#fff;stroke-width:2" />
	<line
   x1="477.061"
   y1="325.836"
   x2="100.625"
   y2="325.836"
   id="line165"
   style="fill:none;stroke:#fff;stroke-width:2" />
	<line
   x1="476.25"
   y1="288.336"
   x2="476.25"
   y2="325.836"
   id="line167"
   style="fill:none;stroke:#fff;stroke-width:2" />
	<path
   d="m 25.625,250.836 c 0,41.455 33.545,75 75,75"
   id="path169"
   style="fill:none;stroke:#fff;stroke-width:2" />
</g>
<path
   d="m 775,368.336 c 0,3.452 -2.798,6.25 -6.25,6.25 h -212.5 c -3.452,0 -6.25,-2.798 -6.25,-6.25 v -212.5 c 0,-3.451 2.798,-6.25 6.25,-6.25 h 212.5 c 3.452,0 6.25,2.799 6.25,6.25 v 212.5 z"
   id="path171"
   style="fill:none;stroke:#fff;stroke-width:2" />






<g
   id="g189">
	<g
   id="g191">
		<g
   id="g193">
			<path
   d="m 623.201,178.588 h -12 c -0.83,0 -1.499,0.671 -1.499,1.5 v 12 c 0,0.828 0.669,1.5 1.499,1.5 h 12 c 0.83,0 1.501,-0.672 1.501,-1.5 v -12 c 0,-0.829 -0.671,-1.5 -1.501,-1.5 z m -10.41,13.5 c -0.828,0 -1.5,-0.672 -1.5,-1.5 0,-0.828 0.672,-1.5 1.5,-1.5 0.827,0 1.501,0.672 1.501,1.5 0,0.828 -0.674,1.5 -1.501,1.5 z m 4.411,-4.5 c -0.827,0 -1.501,-0.672 -1.501,-1.5 0,-0.828 0.674,-1.5 1.501,-1.5 0.827,0 1.499,0.672 1.499,1.5 0,0.828 -0.672,1.5 -1.499,1.5 z m 4.409,-4.5 c -0.828,0 -1.502,-0.672 -1.502,-1.5 0,-0.828 0.674,-1.5 1.502,-1.5 0.828,0 1.499,0.672 1.499,1.5 0,0.828 -0.671,1.5 -1.499,1.5 z"
   id="path195"
   style="fill:#ff0" />
		</g>
	</g>
	<g
   id="g197">
		<g
   id="g199">
			<path
   d="m 600.764,178.588 h -11.999 c -0.827,0 -1.499,0.671 -1.499,1.5 v 12 c 0,0.828 0.672,1.5 1.499,1.5 h 11.999 c 0.83,0 1.502,-0.672 1.502,-1.5 v -12 c 0,-0.829 -0.672,-1.5 -1.502,-1.5 z m -10.41,13.5 c -0.827,0 -1.498,-0.672 -1.498,-1.5 0,-0.828 0.671,-1.5 1.498,-1.5 0.828,0 1.502,0.672 1.502,1.5 0,0.828 -0.674,1.5 -1.502,1.5 z m 4.412,-4.5 c -0.828,0 -1.502,-0.672 -1.502,-1.5 0,-0.828 0.674,-1.5 1.502,-1.5 0.828,0 1.499,0.672 1.499,1.5 0,0.828 -0.671,1.5 -1.499,1.5 z m 4.409,-4.5 c -0.827,0 -1.501,-0.672 -1.501,-1.5 0,-0.828 0.674,-1.5 1.501,-1.5 0.827,0 1.499,0.672 1.499,1.5 0,0.828 -0.672,1.5 -1.499,1.5 z"
   id="path201"
   style="fill:#ff0" />
		</g>
	</g>
</g>
<g
   id="g203">
	<g
   id="g205">
		<g
   id="g207">
			<path
   d="m 736.775,178.588 h -12 c -0.829,0 -1.5,0.671 -1.5,1.5 v 12 c 0,0.828 0.671,1.5 1.5,1.5 h 12 c 0.83,0 1.5,-0.672 1.5,-1.5 v -12 c 0,-0.829 -0.67,-1.5 -1.5,-1.5 z m -10.409,13.5 c -0.828,0 -1.501,-0.672 -1.501,-1.5 0,-0.828 0.673,-1.5 1.501,-1.5 0.827,0 1.499,0.672 1.499,1.5 0,0.828 -0.672,1.5 -1.499,1.5 z m 0,-9 c -0.828,0 -1.501,-0.672 -1.501,-1.5 0,-0.828 0.673,-1.5 1.501,-1.5 0.827,0 1.499,0.672 1.499,1.5 0,0.828 -0.672,1.5 -1.499,1.5 z m 4.409,4.5 c -0.828,0 -1.5,-0.672 -1.5,-1.5 0,-0.828 0.672,-1.5 1.5,-1.5 0.827,0 1.5,0.672 1.5,1.5 0,0.828 -0.672,1.5 -1.5,1.5 z m 4.41,4.5 c -0.828,0 -1.501,-0.672 -1.501,-1.5 0,-0.828 0.673,-1.5 1.501,-1.5 0.827,0 1.5,0.672 1.5,1.5 0,0.828 -0.673,1.5 -1.5,1.5 z m 0,-9 c -0.828,0 -1.501,-0.672 -1.501,-1.5 0,-0.828 0.673,-1.5 1.501,-1.5 0.827,0 1.5,0.672 1.5,1.5 0,0.828 -0.673,1.5 -1.5,1.5 z"
   id="path209"
   style="fill:#ff0" />
		</g>
	</g>
	<g
   id="g211">
		<g
   id="g213">
			<path
   d="m 714.34,178.588 h -12.001 c -0.829,0 -1.5,0.671 -1.5,1.5 v 12 c 0,0.828 0.671,1.5 1.5,1.5 h 12.001 c 0.828,0 1.499,-0.672 1.499,-1.5 v -12 c 0,-0.829 -0.671,-1.5 -1.499,-1.5 z m -10.41,13.5 c -0.828,0 -1.5,-0.672 -1.5,-1.5 0,-0.828 0.672,-1.5 1.5,-1.5 0.827,0 1.5,0.672 1.5,1.5 0,0.828 -0.673,1.5 -1.5,1.5 z m 0,-9 c -0.828,0 -1.5,-0.672 -1.5,-1.5 0,-0.828 0.672,-1.5 1.5,-1.5 0.827,0 1.5,0.672 1.5,1.5 0,0.828 -0.673,1.5 -1.5,1.5 z m 4.409,4.5 c -0.828,0 -1.499,-0.672 -1.499,-1.5 0,-0.828 0.671,-1.5 1.499,-1.5 0.827,0 1.5,0.672 1.5,1.5 0,0.828 -0.673,1.5 -1.5,1.5 z m 4.409,4.5 c -0.828,0 -1.499,-0.672 -1.499,-1.5 0,-0.828 0.671,-1.5 1.499,-1.5 0.827,0 1.5,0.672 1.5,1.5 0,0.828 -0.673,1.5 -1.5,1.5 z m 0,-9 c -0.828,0 -1.499,-0.672 -1.499,-1.5 0,-0.828 0.671,-1.5 1.499,-1.5 0.827,0 1.5,0.672 1.5,1.5 0,0.828 -0.673,1.5 -1.5,1.5 z"
   id="path215"
   style="fill:#ff0" />
		</g>
	</g>
</g>
<g
   id="g217">
	<g
   id="g219">
		<g
   id="g221">
			<path
   d="m 623.201,222.465 h -12 c -0.828,0 -1.499,0.671 -1.499,1.5 v 12 c 0,0.828 0.671,1.5 1.499,1.5 h 12 c 0.83,0 1.501,-0.672 1.501,-1.5 v -12 c 0,-0.829 -0.671,-1.5 -1.501,-1.5 z m -10.455,13.5 c -0.827,0 -1.498,-0.672 -1.498,-1.5 0,-0.828 0.671,-1.5 1.498,-1.5 0.828,0 1.502,0.672 1.502,1.5 0,0.828 -0.674,1.5 -1.502,1.5 z m 0,-9 c -0.827,0 -1.498,-0.672 -1.498,-1.5 0,-0.828 0.671,-1.5 1.498,-1.5 0.828,0 1.502,0.672 1.502,1.5 0,0.828 -0.674,1.5 -1.502,1.5 z m 8.821,9 c -0.827,0 -1.501,-0.672 -1.501,-1.5 0,-0.828 0.674,-1.5 1.501,-1.5 0.827,0 1.499,0.672 1.499,1.5 0,0.828 -0.671,1.5 -1.499,1.5 z m 0,-9 c -0.827,0 -1.501,-0.672 -1.501,-1.5 0,-0.828 0.674,-1.5 1.501,-1.5 0.827,0 1.499,0.672 1.499,1.5 0,0.828 -0.671,1.5 -1.499,1.5 z"
   id="path223"
   style="fill:#ff0" />
		</g>
	</g>
	<g
   id="g225">
		<g
   id="g227">
			<path
   d="m 600.764,222.465 h -11.999 c -0.827,0 -1.499,0.671 -1.499,1.5 v 12 c 0,0.828 0.672,1.5 1.499,1.5 h 11.999 c 0.83,0 1.502,-0.672 1.502,-1.5 v -12 c 0,-0.829 -0.672,-1.5 -1.502,-1.5 z m -10.453,13.5 c -0.828,0 -1.5,-0.672 -1.5,-1.5 0,-0.828 0.672,-1.5 1.5,-1.5 0.827,0 1.501,0.672 1.501,1.5 0,0.828 -0.674,1.5 -1.501,1.5 z m 0,-9 c -0.828,0 -1.5,-0.672 -1.5,-1.5 0,-0.828 0.672,-1.5 1.5,-1.5 0.827,0 1.501,0.672 1.501,1.5 0,0.828 -0.674,1.5 -1.501,1.5 z m 8.818,9 c -0.828,0 -1.5,-0.672 -1.5,-1.5 0,-0.828 0.672,-1.5 1.5,-1.5 0.827,0 1.501,0.672 1.501,1.5 0,0.828 -0.674,1.5 -1.501,1.5 z m 0,-9 c -0.828,0 -1.5,-0.672 -1.5,-1.5 0,-0.828 0.672,-1.5 1.5,-1.5 0.827,0 1.501,0.672 1.501,1.5 0,0.828 -0.674,1.5 -1.501,1.5 z"
   id="path229"
   style="fill:#ff0" />
		</g>
	</g>
</g>
<g
   id="g231">
	<g
   id="g233">
		<g
   id="g235">
			<path
   d="m 736.775,222.465 h -12 c -0.829,0 -1.5,0.671 -1.5,1.5 v 12 c 0,0.828 0.671,1.5 1.5,1.5 h 12 c 0.828,0 1.5,-0.672 1.5,-1.5 v -12 c 0,-0.829 -0.671,-1.5 -1.5,-1.5 z m -10.41,4.5 c -0.828,0 -1.5,-0.672 -1.5,-1.5 0,-0.828 0.672,-1.5 1.5,-1.5 0.827,0 1.5,0.672 1.5,1.5 0,0.828 -0.673,1.5 -1.5,1.5 z m 8.82,9 c -0.828,0 -1.501,-0.672 -1.501,-1.5 0,-0.828 0.673,-1.5 1.501,-1.5 0.827,0 1.5,0.672 1.5,1.5 0,0.828 -0.673,1.5 -1.5,1.5 z"
   id="path237"
   style="fill:#ff0" />
		</g>
	</g>
	<g
   id="g239">
		<g
   id="g241">
			<path
   d="m 714.338,222.465 h -11.999 c -0.829,0 -1.5,0.671 -1.5,1.5 v 12 c 0,0.828 0.671,1.5 1.5,1.5 h 11.999 c 0.83,0 1.501,-0.672 1.501,-1.5 v -12 c 0,-0.829 -0.671,-1.5 -1.501,-1.5 z m -10.408,4.5 c -0.828,0 -1.5,-0.672 -1.5,-1.5 0,-0.828 0.672,-1.5 1.5,-1.5 0.827,0 1.499,0.672 1.499,1.5 0,0.828 -0.672,1.5 -1.499,1.5 z m 8.818,9 c -0.828,0 -1.5,-0.672 -1.5,-1.5 0,-0.828 0.672,-1.5 1.5,-1.5 0.827,0 1.5,0.672 1.5,1.5 0,0.828 -0.673,1.5 -1.5,1.5 z"
   id="path243"
   style="fill:#ff0" />
		</g>
	</g>
</g>
<g
   id="g245">
	<g
   id="g247">
		<g
   id="g249">
			<path
   d="m 582.814,266.106 h -11.999 c -0.829,0 -1.5,0.671 -1.5,1.501 v 11.998 c 0,0.828 0.671,1.499 1.5,1.499 h 11.999 c 0.829,0 1.5,-0.671 1.5,-1.499 v -11.998 c 0,-0.83 -0.67,-1.501 -1.5,-1.501 z m -5.999,8.999 c -0.828,0 -1.501,-0.672 -1.501,-1.5 0,-0.828 0.673,-1.5 1.501,-1.5 0.827,0 1.499,0.672 1.499,1.5 0,0.828 -0.671,1.5 -1.499,1.5 z"
   id="path251"
   style="fill:#ff0" />
		</g>
	</g>
	<g
   id="g253">
		<g
   id="g255">
			<path
   d="m 605.25,266.106 h -11.999 c -0.829,0 -1.499,0.671 -1.499,1.501 v 11.998 c 0,0.828 0.67,1.499 1.499,1.499 h 11.999 c 0.829,0 1.5,-0.671 1.5,-1.499 v -11.998 c 0,-0.83 -0.671,-1.501 -1.5,-1.501 z m -10.408,4.499 c -0.828,0 -1.501,-0.671 -1.501,-1.5 0,-0.827 0.673,-1.498 1.501,-1.498 0.827,0 1.5,0.671 1.5,1.498 0,0.83 -0.673,1.5 -1.5,1.5 z m 8.818,9 c -0.828,0 -1.501,-0.672 -1.501,-1.5 0,-0.829 0.673,-1.5 1.501,-1.5 0.827,0 1.5,0.671 1.5,1.5 0,0.829 -0.673,1.5 -1.5,1.5 z"
   id="path257"
   style="fill:#ff0" />
		</g>
	</g>
</g>
<g
   id="g259">
	<g
   id="g261">
		<g
   id="g263">
			<path
   d="m 658.23,266.106 h -12 c -0.828,0 -1.499,0.671 -1.499,1.501 v 11.998 c 0,0.828 0.671,1.499 1.499,1.499 h 12 c 0.83,0 1.501,-0.671 1.501,-1.499 v -11.998 c 0,-0.83 -0.67,-1.501 -1.501,-1.501 z m -5.999,8.999 c -0.827,0 -1.499,-0.672 -1.499,-1.5 0,-0.828 0.672,-1.5 1.499,-1.5 0.827,0 1.499,0.672 1.499,1.5 0,0.828 -0.671,1.5 -1.499,1.5 z"
   id="path265"
   style="fill:#ff0" />
		</g>
	</g>
	<g
   id="g267">
		<g
   id="g269">
			<path
   d="m 680.666,266.106 h -11.999 c -0.827,0 -1.499,0.671 -1.499,1.501 v 11.998 c 0,0.828 0.672,1.499 1.499,1.499 h 11.999 c 0.83,0 1.502,-0.671 1.502,-1.499 v -11.998 c 0,-0.83 -0.672,-1.501 -1.502,-1.501 z m -5.998,8.999 c -0.828,0 -1.499,-0.672 -1.499,-1.5 0,-0.828 0.671,-1.5 1.499,-1.5 0.828,0 1.499,0.672 1.499,1.5 0,0.828 -0.671,1.5 -1.499,1.5 z"
   id="path271"
   style="fill:#ff0" />
		</g>
	</g>
</g>
<g
   id="g273">
	<g
   id="g275">
		<g
   id="g277">
			<path
   d="m 754.674,266.105 h -11.998 c -0.83,0 -1.5,0.672 -1.5,1.5 v 12 c 0,0.828 0.67,1.5 1.5,1.5 h 11.998 c 0.83,0 1.5,-0.672 1.5,-1.5 v -12 c 0,-0.828 -0.67,-1.5 -1.5,-1.5 z m -10.453,13.5 c -0.827,0 -1.5,-0.672 -1.5,-1.499 0,-0.83 0.673,-1.5 1.5,-1.5 0.827,0 1.5,0.67 1.5,1.5 0,0.828 -0.673,1.499 -1.5,1.499 z m 0,-4.498 c -0.827,0 -1.5,-0.674 -1.5,-1.502 0,-0.828 0.673,-1.498 1.5,-1.498 0.827,0 1.5,0.67 1.5,1.498 0,0.828 -0.673,1.502 -1.5,1.502 z m 0,-4.501 c -0.827,0 -1.5,-0.673 -1.5,-1.501 0,-0.828 0.673,-1.5 1.5,-1.5 0.827,0 1.5,0.672 1.5,1.5 0,0.828 -0.673,1.501 -1.5,1.501 z m 8.818,8.999 c -0.827,0 -1.5,-0.672 -1.5,-1.499 0,-0.83 0.673,-1.5 1.5,-1.5 0.828,0 1.501,0.67 1.501,1.5 0,0.828 -0.673,1.499 -1.501,1.499 z m 0,-4.498 c -0.827,0 -1.5,-0.674 -1.5,-1.502 0,-0.828 0.673,-1.498 1.5,-1.498 0.828,0 1.501,0.67 1.501,1.498 0,0.828 -0.673,1.502 -1.501,1.502 z m 0,-4.501 c -0.827,0 -1.5,-0.673 -1.5,-1.501 0,-0.828 0.673,-1.5 1.5,-1.5 0.828,0 1.501,0.672 1.501,1.5 0,0.828 -0.673,1.501 -1.501,1.501 z"
   id="path279"
   style="fill:#ff0" />
		</g>
	</g>
	<g
   id="g281">
		<g
   id="g283">
			<path
   d="m 732.237,266.105 h -11.999 c -0.829,0 -1.5,0.672 -1.5,1.5 v 12 c 0,0.828 0.671,1.5 1.5,1.5 h 11.999 c 0.829,0 1.501,-0.672 1.501,-1.5 v -12 c 0,-0.828 -0.672,-1.5 -1.501,-1.5 z m -10.454,13.5 c -0.827,0 -1.5,-0.672 -1.5,-1.499 0,-0.83 0.673,-1.5 1.5,-1.5 0.828,0 1.5,0.67 1.5,1.5 0,0.828 -0.672,1.499 -1.5,1.499 z m 0,-4.498 c -0.827,0 -1.5,-0.674 -1.5,-1.502 0,-0.828 0.673,-1.498 1.5,-1.498 0.828,0 1.5,0.67 1.5,1.498 0,0.828 -0.672,1.502 -1.5,1.502 z m 0,-4.501 c -0.827,0 -1.5,-0.673 -1.5,-1.501 0,-0.828 0.673,-1.5 1.5,-1.5 0.828,0 1.5,0.672 1.5,1.5 0,0.828 -0.672,1.501 -1.5,1.501 z m 8.819,8.999 c -0.827,0 -1.5,-0.672 -1.5,-1.499 0,-0.83 0.673,-1.5 1.5,-1.5 0.828,0 1.5,0.67 1.5,1.5 0,0.828 -0.672,1.499 -1.5,1.499 z m 0,-4.498 c -0.827,0 -1.5,-0.674 -1.5,-1.502 0,-0.828 0.673,-1.498 1.5,-1.498 0.828,0 1.5,0.67 1.5,1.498 0,0.828 -0.672,1.502 -1.5,1.502 z m 0,-4.501 c -0.827,0 -1.5,-0.673 -1.5,-1.501 0,-0.828 0.673,-1.5 1.5,-1.5 0.828,0 1.5,0.672 1.5,1.5 0,0.828 -0.672,1.501 -1.5,1.501 z"
   id="path285"
   style="fill:#ff0" />
		</g>
	</g>
</g>
<g
   id="g287">
	<g
   id="g289">
		<g
   id="g291">
			<path
   d="m 600.764,311.088 h -11.999 c -0.83,0 -1.499,0.669 -1.499,1.499 v 11.999 c 0,0.83 0.669,1.502 1.499,1.502 h 11.999 c 0.833,0 1.502,-0.672 1.502,-1.502 v -11.999 c 0,-0.83 -0.669,-1.499 -1.502,-1.499 z m -10.453,13.498 c -0.826,0 -1.5,-0.674 -1.5,-1.496 0,-0.835 0.674,-1.504 1.5,-1.504 0.827,0 1.501,0.669 1.501,1.504 0,0.822 -0.674,1.496 -1.501,1.496 z m 0,-4.499 c -0.826,0 -1.5,-0.674 -1.5,-1.499 0,-0.828 0.674,-1.502 1.5,-1.502 0.827,0 1.501,0.674 1.501,1.502 0,0.825 -0.674,1.499 -1.501,1.499 z m 0,-4.497 c -0.826,0 -1.5,-0.672 -1.5,-1.504 0,-0.825 0.674,-1.499 1.5,-1.499 0.827,0 1.501,0.674 1.501,1.499 0,0.832 -0.674,1.504 -1.501,1.504 z m 8.818,8.996 c -0.826,0 -1.5,-0.674 -1.5,-1.496 0,-0.835 0.674,-1.504 1.5,-1.504 0.827,0 1.501,0.669 1.501,1.504 0,0.822 -0.674,1.496 -1.501,1.496 z m 0,-4.499 c -0.826,0 -1.5,-0.674 -1.5,-1.499 0,-0.828 0.674,-1.502 1.5,-1.502 0.827,0 1.501,0.674 1.501,1.502 0,0.825 -0.674,1.499 -1.501,1.499 z m 0,-4.497 c -0.826,0 -1.5,-0.672 -1.5,-1.504 0,-0.825 0.674,-1.499 1.5,-1.499 0.827,0 1.501,0.674 1.501,1.499 0,0.832 -0.674,1.504 -1.501,1.504 z"
   id="path293"
   style="fill:#ff0" />
		</g>
	</g>
	<g
   id="g295">
		<g
   id="g297">
			<path
   d="m 623.205,311.088 h -11.999 c -0.833,0 -1.504,0.669 -1.504,1.499 v 11.999 c 0,0.83 0.671,1.502 1.504,1.502 h 11.999 c 0.828,0 1.497,-0.672 1.497,-1.502 v -11.999 c 0,-0.83 -0.669,-1.499 -1.497,-1.499 z m -10.417,13.498 c -0.82,0 -1.494,-0.674 -1.494,-1.496 0,-0.835 0.674,-1.504 1.494,-1.504 0.837,0 1.507,0.669 1.507,1.504 0,0.822 -0.67,1.496 -1.507,1.496 z m 0,-8.996 c -0.82,0 -1.494,-0.672 -1.494,-1.504 0,-0.825 0.674,-1.499 1.494,-1.499 0.837,0 1.507,0.674 1.507,1.499 0,0.832 -0.67,1.504 -1.507,1.504 z m 4.414,4.497 c -0.823,0 -1.497,-0.674 -1.497,-1.499 0,-0.828 0.674,-1.502 1.497,-1.502 0.83,0 1.504,0.674 1.504,1.502 0,0.825 -0.674,1.499 -1.504,1.499 z m 4.409,4.499 c -0.825,0 -1.499,-0.674 -1.499,-1.496 0,-0.835 0.674,-1.504 1.499,-1.504 0.832,0 1.504,0.669 1.504,1.504 0,0.822 -0.672,1.496 -1.504,1.496 z m 0,-8.996 c -0.825,0 -1.499,-0.672 -1.499,-1.504 0,-0.825 0.674,-1.499 1.499,-1.499 0.832,0 1.504,0.674 1.504,1.499 0,0.832 -0.672,1.504 -1.504,1.504 z"
   id="path299"
   style="fill:#ff0" />
		</g>
	</g>
</g>
<g
   id="g301">
	<g
   id="g303">
		<g
   id="g305">
			<path
   d="m 714.341,311.088 h -11.998 c -0.834,0 -1.504,0.669 -1.504,1.499 v 11.999 c 0,0.83 0.67,1.502 1.504,1.502 h 11.998 c 0.829,0 1.498,-0.672 1.498,-1.502 v -11.999 c 0,-0.83 -0.669,-1.499 -1.498,-1.499 z m -10.459,13.498 c -0.821,0 -1.494,-0.674 -1.494,-1.496 0,-0.835 0.673,-1.504 1.494,-1.504 0.834,0 1.505,0.669 1.505,1.504 0,0.822 -0.671,1.496 -1.505,1.496 z m 0,-4.499 c -0.821,0 -1.494,-0.674 -1.494,-1.499 0,-0.828 0.673,-1.502 1.494,-1.502 0.834,0 1.505,0.674 1.505,1.502 0,0.825 -0.671,1.499 -1.505,1.499 z m 0,-4.497 c -0.821,0 -1.494,-0.672 -1.494,-1.504 0,-0.825 0.673,-1.499 1.494,-1.499 0.834,0 1.505,0.674 1.505,1.499 0,0.832 -0.671,1.504 -1.505,1.504 z m 8.818,8.996 c -0.82,0 -1.494,-0.674 -1.494,-1.496 0,-0.835 0.674,-1.504 1.494,-1.504 0.837,0 1.507,0.669 1.507,1.504 0,0.822 -0.67,1.496 -1.507,1.496 z m 0,-4.499 c -0.82,0 -1.494,-0.674 -1.494,-1.499 0,-0.828 0.674,-1.502 1.494,-1.502 0.837,0 1.507,0.674 1.507,1.502 0,0.825 -0.67,1.499 -1.507,1.499 z m 0,-4.497 c -0.82,0 -1.494,-0.672 -1.494,-1.504 0,-0.825 0.674,-1.499 1.494,-1.499 0.837,0 1.507,0.674 1.507,1.499 0,0.832 -0.67,1.504 -1.507,1.504 z"
   id="path307"
   style="fill:#ff0" />
		</g>
	</g>
	<g
   id="g309">
		<g
   id="g311">
			<path
   d="M 736.771,311.088 H 724.77 c -0.826,0 -1.495,0.669 -1.495,1.499 v 11.999 c 0,0.83 0.669,1.502 1.495,1.502 h 12.001 c 0.831,0 1.504,-0.672 1.504,-1.502 v -11.999 c 0,-0.83 -0.672,-1.499 -1.504,-1.499 z m -10.406,13.498 c -0.833,0 -1.507,-0.674 -1.507,-1.496 0,-0.835 0.674,-1.504 1.507,-1.504 0.824,0 1.498,0.669 1.498,1.504 0,0.822 -0.674,1.496 -1.498,1.496 z m 0,-8.996 c -0.833,0 -1.507,-0.672 -1.507,-1.504 0,-0.825 0.674,-1.499 1.507,-1.499 0.824,0 1.498,0.674 1.498,1.499 0,0.832 -0.674,1.504 -1.498,1.504 z m 4.41,4.497 c -0.832,0 -1.504,-0.674 -1.504,-1.499 0,-0.828 0.672,-1.502 1.504,-1.502 0.821,0 1.495,0.674 1.495,1.502 10e-4,0.825 -0.673,1.499 -1.495,1.499 z m 4.41,4.499 c -0.834,0 -1.504,-0.674 -1.504,-1.496 0,-0.835 0.67,-1.504 1.504,-1.504 0.823,0 1.497,0.669 1.497,1.504 0,0.822 -0.674,1.496 -1.497,1.496 z m 0,-8.996 c -0.834,0 -1.504,-0.672 -1.504,-1.504 0,-0.825 0.67,-1.499 1.504,-1.499 0.823,0 1.497,0.674 1.497,1.499 0,0.832 -0.674,1.504 -1.497,1.504 z"
   id="path313"
   style="fill:#ff0" />
		</g>
	</g>
</g>
<g
   id="g315">
	<line
   x1="662.5"
   y1="173.961"
   x2="662.5"
   y2="261.461"
   id="line317"
   style="fill:none;stroke:#fff;stroke-width:2" />
	<line
   x1="662.5"
   y1="304.586"
   x2="662.5"
   y2="348.336"
   id="line319"
   style="fill:none;stroke:#fff;stroke-width:2" />
	<line
   x1="625"
   y1="260.836"
   x2="625"
   y2="305.836"
   id="line321"
   style="fill:none;stroke:#fff;stroke-width:2" />
	<line
   x1="700"
   y1="260.836"
   x2="700"
   y2="305.836"
   id="line323"
   style="fill:none;stroke:#fff;stroke-width:2" />
</g>
<text
   transform="translate(581.1924,211.9863)"
   id="text325"
   style="font-size:18px;font-weight:bold;fill:#fff;font-family:Times New Roman;">10 to 1</text>




<text
   transform="translate(699.1416,211.9873)"
   id="text327"
   style="font-size:18px;font-weight:bold;fill:#fff;font-family:Times New Roman;">8 to 1</text>




<text
   transform="translate(581.1924,255.7148)"
   id="text329"
   style="font-size:18px;font-weight:bold;fill:#fff;font-family:Times New Roman;">10 to 1</text>




<text
   transform="translate(699.1416,255.7148)"
   id="text331"
   style="font-size:18px;font-weight:bold;fill:#fff;font-family:Times New Roman;">8 to 1</text>




<text
   transform="translate(563.2432,299.7832)"
   id="text333"
   style="font-size:18px;font-weight:bold;fill:#fff;font-family:Times New Roman;">16 to 1</text>




<text
   transform="translate(638.6602,299.7832)"
   id="text335"
   style="font-size:18px;font-weight:bold;fill:#fff;font-family:Times New Roman;">31 to 1</text>




<text
   transform="translate(712.666,299.7842)"
   id="text337"
   style="font-size:18px;font-weight:bold;fill:#fff;font-family:Times New Roman;">31 to 1</text>




<text
   transform="translate(581.1934,343.207)"
   id="text339"
   style="font-size:18px;font-weight:bold;fill:#fff;font-family:Times New Roman;">16 to 1</text>




<text
   transform="translate(694.7666,343.207)"
   id="text341"
   style="font-size:18px;font-weight:bold;fill:#fff;font-family:Times New Roman;">16 to 1</text>




<circle
   cx="534.20898"
   cy="237.27"
   r="10"
   id="circle343"
   style="fill:none;stroke:#fff;stroke-width:1.5" />
<circle
   cx="534.20898"
   cy="262.20499"
   r="10"
   id="circle345"
   style="fill:none;stroke:#fff;stroke-width:1.5" />
<circle
   cx="534.20898"
   cy="287.14099"
   r="10"
   id="circle347"
   style="fill:none;stroke:#fff;stroke-width:1.5" />
<circle
   cx="534.20898"
   cy="312.07599"
   r="10"
   id="circle349"
   style="fill:none;stroke:#fff;stroke-width:1.5" />
<circle
   cx="534.20898"
   cy="337.013"
   r="10"
   id="circle351"
   style="fill:none;stroke:#fff;stroke-width:1.5" />
<circle
   cx="534.20898"
   cy="361.948"
   r="10"
   id="circle353"
   style="fill:none;stroke:#fff;stroke-width:1.5" />
<circle
   cx="534.20898"
   cy="212.334"
   r="10"
   id="circle355"
   style="fill:none;stroke:#fff;stroke-width:1.5" />
<circle
   cx="509.20901"
   cy="233.104"
   r="10"
   id="circle357"
   style="fill:none;stroke:#fff;stroke-width:1.5" />
<circle
   cx="509.20901"
   cy="260.12201"
   r="10"
   id="circle359"
   style="fill:none;stroke:#fff;stroke-width:1.5" />
<circle
   cx="509.20901"
   cy="287.14099"
   r="10"
   id="circle361"
   style="fill:none;stroke:#fff;stroke-width:1.5" />
<circle
   cx="509.20901"
   cy="314.16"
   r="10"
   id="circle363"
   style="fill:none;stroke:#fff;stroke-width:1.5" />
<circle
   cx="509.20901"
   cy="341.17999"
   r="10"
   id="circle365"
   style="fill:none;stroke:#fff;stroke-width:1.5" />
<circle
   cx="509.20901"
   cy="368.198"
   r="10"
   id="circle367"
   style="fill:none;stroke:#fff;stroke-width:1.5" />
<circle
   cx="509.20901"
   cy="206.084"
   r="10"
   id="circle369"
   style="fill:none;stroke:#fff;stroke-width:1.5" />
<text
   transform="translate(504.7969,211.2012)"
   id="text371"
   style="font-size:15px;fill:#fff;font-family:Times New Roman">E</text>




<text
   transform="translate(528.5781,217.9639)"
   id="text373"
   style="font-size:15px;fill:#fff;font-family:Times New Roman">C</text>




<text
   transform="translate(504.7969,238.5)"
   id="text375"
   style="font-size:15px;fill:#fff;font-family:Times New Roman">E</text>




<text
   transform="translate(504.7969,265.1738)"
   id="text377"
   style="font-size:15px;fill:#fff;font-family:Times New Roman">E</text>




<text
   transform="translate(504.7969,291.7109)"
   id="text379"
   style="font-size:15px;fill:#fff;font-family:Times New Roman">E</text>




<text
   transform="translate(504.7969,319.0322)"
   id="text381"
   style="font-size:15px;fill:#fff;font-family:Times New Roman">E</text>




<text
   transform="translate(504.7969,345.6621)"
   id="text383"
   style="font-size:15px;fill:#fff;font-family:Times New Roman">E</text>




<text
   transform="translate(504.7969,373.7246)"
   id="text385"
   style="font-size:15px;fill:#fff;font-family:Times New Roman">E</text>




<text
   transform="translate(528.5781,242.2529)"
   id="text387"
   style="font-size:15px;fill:#fff;font-family:Times New Roman">C</text>




<text
   transform="translate(528.5781,268.0479)"
   id="text389"
   style="font-size:15px;fill:#fff;font-family:Times New Roman">C</text>




<text
   transform="translate(528.5781,317.5537)"
   id="text391"
   style="font-size:15px;fill:#fff;font-family:Times New Roman">C</text>




<text
   transform="translate(528.5781,291.4814)"
   id="text393"
   style="font-size:15px;fill:#fff;font-family:Times New Roman">C</text>




<text
   transform="translate(528.5781,341.4961)"
   id="text395"
   style="font-size:15px;fill:#fff;font-family:Times New Roman">C</text>




<text
   transform="translate(528.5781,366.457)"
   id="text397"
   style="font-size:15px;fill:#fff;font-family:Times New Roman">C</text>







<text
   x="249.01422"
   y="91.076859"
   transform="matrix(0.70710678,0.70710678,-0.70710678,0.70710678,0,0)"
   id="text3453"
   xml:space="preserve"
   style="font-size:19px;font-style:normal;font-variant:normal;font-weight:normal;font-stretch:normal;line-height:85.00000238%;letter-spacing:0px;word-spacing:0px;fill:#000000;fill-opacity:1;stroke:none;font-family:Verdana;-inkscape-font-specification:Verdana"><tspan
     x="249.01422"
     y="91.076859"
     id="tspan3455"
     style="font-size:19px;text-align:center;line-height:85.00000238%;text-anchor:middle;fill:#fff;font-family:Times New Roman;-inkscape-font-specification:Times New Roman">B</tspan><tspan
     x="249.01422"
     y="107.22686"
     id="tspan3457"
     style="font-size:19px;text-align:center;line-height:85.00000238%;text-anchor:middle;fill:#fff;font-family:Times New Roman;-inkscape-font-specification:Times New Roman">I</tspan><tspan
     x="249.01422"
     y="123.37686"
     id="tspan3459"
     style="font-size:19px;text-align:center;line-height:85.00000238%;text-anchor:middle;fill:#fff;font-family:Times New Roman;-inkscape-font-specification:Times New Roman">G</tspan></text>

<text
   x="543.58563"
   y="384.24026"
   transform="scale(1.0452007,0.95675404)"
   id="text4455"
   xml:space="preserve"
   style="font-size:16.72321129px;font-style:normal;font-variant:normal;font-weight:bold;font-stretch:normal;line-height:125%;letter-spacing:0px;word-spacing:0px;fill:#000000;fill-opacity:1;stroke:none;font-family:Times New Roman;"><tspan
     x="543.58563"
     y="384.24026"
     id="tspan4457"><tspan
       id="tspan4469"
       style="font-weight:bold;fill:#fff;">8 to 1  </tspan><tspan
       id="tspan4471"
       style="font-weight:bold;fill:#f00;"><tspan
         id="tspan4958"
         style="font-style:italic;-inkscape-font-specification:'Times New Roman, Bold Italic'">ANY CRAPS</tspan></tspan><tspan
       id="tspan4473"
       style="font-weight:bold;fill:#fff;">  8 to 1 </tspan></tspan></text>

<text
   x="509.47934"
   y="185.82854"
   transform="scale(1.111653,0.89956129)"
   id="text4459"
   xml:space="preserve"
   style="font-size:13.33983517px;font-style:normal;font-variant:normal;font-weight:bold;font-stretch:normal;line-height:125%;letter-spacing:0px;word-spacing:0px;fill:#000000;fill-opacity:1;stroke:none;font-family:Times New Roman;"><tspan
     x="509.47934"
     y="185.82854"
     id="tspan4461"
     style="font-size:17.78644943px;font-weight:bold;"><tspan
       id="tspan4463"
       style="font-weight:bold;fill:#fff;">5 to 1   </tspan><tspan
       id="tspan4465"
       style="font-style:italic;font-weight:bold;fill:#f00;-inkscape-font-specification:'Times New Roman, Bold Italic'">SEVEN</tspan><tspan
       id="tspan4467"
       style="font-weight:bold;fill:#fff;">   5 to 1   </tspan></tspan></text>

<text
   x="224.70264"
   y="214.76233"
   id="text4720"
   xml:space="preserve"
   style="font-size:12px;font-style:normal;font-variant:normal;font-weight:bold;font-stretch:normal;line-height:125%;letter-spacing:0px;word-spacing:0px;fill:#000000;fill-opacity:1;stroke:none;font-family:Times New Roman;"><tspan
     x="224.70264"
     y="214.76233"
     id="tspan4722"
     style="font-size:21px;font-weight:bold;fill:#ff0;">• 3 • 4 • 9 • 10 • 11 •</tspan></text>

<g
   id="pass"><title
     id="title4489">pass</title><path
     inkscape:label="#pass"
     sodipodi:nodetypes="ccczcccczc"
     inkscape:connector-curvature="0"
     id="passp0"
     d="m 61.540474,53.586687 -34.74059,24.814707 0.992588,182.636246 c 0,0 5.624667,29.77764 15.881413,40.69612 10.256745,10.91847 45.659061,24.81471 45.659061,24.81471 l 384.131674,0 1.98517,-38.71095 -367.25767,0 c 0,0 -24.483844,-1.98517 -31.762824,-7.44441 -7.27898,-5.45923 -11.911057,-25.311 -11.911057,-25.311"
     style="fill:none;stroke:none;stroke-width:1px;stroke-linecap:butt;stroke-linejoin:miter;stroke-opacity:1"><title
       id="title3208">pass</title></path></g><g
   id="dontpass"><title
     id="title4247">dontpass</title><path
     inkscape:label="#dontpass"
     inkscape:connector-curvature="0"
     id="dontpassp0"
     d="m 99.258829,27.779392 -35.733179,25.807295 0,133.999423 36.72577,0"
     style="fill:none;stroke:none;stroke-width:1px;stroke-linecap:butt;stroke-linejoin:miter;stroke-opacity:1"><title
       id="title4235">dontpass</title></path><path
     inkscape:label="#dontpass"
     inkscape:connector-curvature="0"
     id="dontpassp1"
     d="m 164.76966,251.11176 0,34.74059 310.68013,0 0,-35.73318"
     style="fill:none;stroke:none;stroke-width:1px;stroke-linecap:butt;stroke-linejoin:miter;stroke-opacity:1"><title
       id="title4239">dontpass</title></path></g><g
   id="big6"><title
     id="title4499">big6</title><path
     inkscape:label="#big6"
     inkscape:connector-curvature="0"
     id="big6p0"
     d="m 64.518239,188.57869 37.718351,0 29.77765,29.77765 -56.57753,56.57754 -10.217931,-17.69798"
     style="fill:none;stroke:none;stroke-width:1px;stroke-linecap:butt;stroke-linejoin:miter;stroke-opacity:1"><title
       id="title4493">big6</title></path></g><g
   id="big8"><title
     id="title4509">big8</title><path
     inkscape:label="#big8"
     inkscape:connector-curvature="0"
     id="big8p0"
     d="m 133.00683,220.34152 32.25912,32.25912 0,35.23688 -66.007121,0 -21.96515,-12.68158"
     style="fill:none;stroke:none;stroke-width:1px;stroke-linecap:butt;stroke-linejoin:miter;stroke-opacity:1"><title
       id="title4503">big8</title></path></g><g
   id="field"><title
     id="title4519">field</title><path
     inkscape:label="#field"
     inkscape:connector-curvature="0"
     id="fieldp0"
     d="m 104.22177,188.57869 370.23543,0 0,59.5553 -307.70237,0"
     style="fill:none;stroke:none;stroke-width:1px;stroke-linecap:butt;stroke-linejoin:miter;stroke-opacity:1"><title
       id="title4513">field</title></path></g><g
   id="come"><title
     id="title4529">come</title><path
     inkscape:label="#come"
     inkscape:connector-curvature="0"
     id="comep0"
     d="m 102.23659,127.03822 374.20579,0 0,61.54047 -375.19837,0"
     style="fill:none;stroke:none;stroke-width:1px;stroke-linecap:butt;stroke-linejoin:miter;stroke-opacity:1"><title
       id="title4523">come</title></path></g><g
   id="dontcome"><title
     id="title4539">dontcome</title><path
     inkscape:label="#dontcome"
     inkscape:connector-curvature="0"
     id="dontcomep0"
     d="m 101.24401,26.786803 62.53306,0 0,98.266237 -60.54789,0"
     style="fill:none;stroke:none;stroke-width:1px;stroke-linecap:butt;stroke-linejoin:miter;stroke-opacity:1"><title
       id="title4533">dontcome</title></path></g><g
   id="four"><title
     id="title4549">four</title><path
     inkscape:label="#four"
     inkscape:connector-curvature="0"
     id="fourp0"
     d="m 163.77707,58.549629 59.55529,0 0,57.570121 -59.55529,0"
     style="fill:none;stroke:none;stroke-width:1px;stroke-linecap:butt;stroke-linejoin:miter;stroke-opacity:1"><title
       id="title4543">four</title></path></g><g
   id="lay4"><title
     id="title4559">lay4</title><path
     inkscape:label="#lay4"
     inkscape:connector-curvature="0"
     id="lay4p0"
     d="m 165.35931,27.248701 59.12288,0 0,19.399696 -58.66098,0"
     style="fill:none;stroke:none;stroke-width:1px;stroke-linecap:butt;stroke-linejoin:miter;stroke-opacity:1"><title
       id="title4553">lay4</title></path></g><g
   id="place4"><title
     id="title4575">place4</title><path
     inkscape:label="#place4"
     inkscape:connector-curvature="0"
     id="place4p0"
     d="m 165.35931,48.957884 59.58478,0 0,6.466566 -59.58478,0"
     style="fill:none;stroke:none;stroke-width:1px;stroke-linecap:butt;stroke-linejoin:miter;stroke-opacity:1"><title
       id="title4563">place4</title></path><path
     inkscape:label="#place4"
     inkscape:connector-curvature="0"
     id="place4p1"
     d="m 164.43552,118.70441 60.97047,0 0,5.54277 -60.50858,0"
     style="fill:none;stroke:none;stroke-width:1px;stroke-linecap:butt;stroke-linejoin:miter;stroke-opacity:1"><title
       id="title4567">place4</title></path></g><g
   id="lay5"><title
     id="title4585">lay5</title><path
     inkscape:label="#lay5"
     inkscape:connector-curvature="0"
     id="lay5p0"
     d="m 226.79168,26.324906 60.50858,0 0,19.861593 -60.97047,0"
     style="fill:none;stroke:none;stroke-width:1px;stroke-linecap:butt;stroke-linejoin:miter;stroke-opacity:1"><title
       id="title4579">lay5</title></path></g><g
   id="place5"><title
     id="title4601">place5</title><path
     inkscape:label="#place5"
     inkscape:connector-curvature="0"
     id="place5p0"
     d="m 227.25358,49.419782 60.97047,0 0,6.466565 -61.43237,0"
     style="fill:none;stroke:none;stroke-width:1px;stroke-linecap:butt;stroke-linejoin:miter;stroke-opacity:1"><title
       id="title4589">place5</title></path><path
     inkscape:label="#place5"
     inkscape:connector-curvature="0"
     id="place5p1"
     d="m 225.86789,117.78061 61.89427,0 0,6.92847 -61.43237,0"
     style="fill:none;stroke:none;stroke-width:1px;stroke-linecap:butt;stroke-linejoin:miter;stroke-opacity:1"><title
       id="title4593">place5</title></path></g><g
   id="five"
   inkscape:label="#g4605"><path
     inkscape:label="#path4603"
     inkscape:connector-curvature="0"
     id="fivep0"
     d="m 226.79168,56.348245 60.97048,0 0,60.046675 -61.43237,0"
     style="fill:none;stroke:none;stroke-width:1px;stroke-linecap:butt;stroke-linejoin:miter;stroke-opacity:1" /></g><g
   id="lay6"
   inkscape:label="#g4610"><path
     inkscape:label="#path4608"
     inkscape:connector-curvature="0"
     id="lay6p0"
     d="m 289.14785,26.324906 61.43237,0 0,19.861593 -61.89427,0"
     style="fill:none;stroke:none;stroke-width:1px;stroke-linecap:butt;stroke-linejoin:miter;stroke-opacity:1" /></g><g
   id="place6"
   inkscape:label="#g4617"><path
     inkscape:label="#path4613"
     inkscape:connector-curvature="0"
     id="place6p0"
     d="m 289.60975,48.034089 61.43237,0 0,7.390361 -62.35617,0"
     style="fill:none;stroke:none;stroke-width:1px;stroke-linecap:butt;stroke-linejoin:miter;stroke-opacity:1" /><path
     inkscape:label="#path4615"
     inkscape:connector-curvature="0"
     id="place6p1"
     d="m 289.14785,118.70441 60.97047,0 0,6.00467 -60.97047,0"
     style="fill:none;stroke:none;stroke-width:1px;stroke-linecap:butt;stroke-linejoin:miter;stroke-opacity:1" /></g><g
   id="six"
   inkscape:label="#g4623"><path
     inkscape:label="#path4621"
     inkscape:connector-curvature="0"
     id="sixp0"
     d="m 289.60975,57.733937 60.50857,0 0,58.199083 -60.50857,0"
     style="fill:none;stroke:none;stroke-width:1px;stroke-linecap:butt;stroke-linejoin:miter;stroke-opacity:1" /></g><g
   id="lay8"
   inkscape:label="#g4628"><path
     inkscape:label="#path4626"
     inkscape:connector-curvature="0"
     id="lay8p0"
     d="m 351.96591,25.863008 60.97047,0 0,19.861594 -60.50857,0"
     style="fill:none;stroke:none;stroke-width:1px;stroke-linecap:butt;stroke-linejoin:miter;stroke-opacity:1" /></g><g
   id="place8"
   inkscape:label="#g4637"><path
     inkscape:label="#path4633"
     inkscape:connector-curvature="0"
     id="place8p0"
     d="m 352.42781,48.034089 60.97047,0 0,6.928463 -61.43237,0"
     style="fill:none;stroke:none;stroke-width:1px;stroke-linecap:butt;stroke-linejoin:miter;stroke-opacity:1" /><path
     inkscape:label="#path4635"
     inkscape:connector-curvature="0"
     id="place8p1"
     d="m 352.42781,118.70441 60.04668,0 0,5.54277 -60.97048,0"
     style="fill:none;stroke:none;stroke-width:1px;stroke-linecap:butt;stroke-linejoin:miter;stroke-opacity:1" /></g><g
   id="eight"
   inkscape:label="#g4643"><path
     inkscape:label="#path4641"
     inkscape:connector-curvature="0"
     id="eightp0"
     d="m 351.96591,56.810142 60.97047,0 0,59.584778 -61.43237,0"
     style="fill:none;stroke:none;stroke-width:1px;stroke-linecap:butt;stroke-linejoin:miter;stroke-opacity:1" /></g><g
   id="lay9"
   inkscape:label="#g4648"><path
     inkscape:label="#path4646"
     inkscape:connector-curvature="0"
     id="lay9p0"
     d="m 414.32208,26.324906 61.43237,0 0,20.323491 -61.89427,0"
     style="fill:none;stroke:none;stroke-width:1px;stroke-linecap:butt;stroke-linejoin:miter;stroke-opacity:1" /></g><g
   id="place9"
   inkscape:label="#g4655"><path
     inkscape:label="#path4651"
     inkscape:connector-curvature="0"
     id="place9p0"
     d="m 413.86018,48.034089 61.43237,0 0,6.928463 -61.43237,0"
     style="fill:none;stroke:none;stroke-width:1px;stroke-linecap:butt;stroke-linejoin:miter;stroke-opacity:1" /><path
     inkscape:label="#path4653"
     inkscape:connector-curvature="0"
     id="place9p1"
     d="m 413.86018,117.78061 61.89427,0 0,7.39037 -61.89427,0"
     style="fill:none;stroke:none;stroke-width:1px;stroke-linecap:butt;stroke-linejoin:miter;stroke-opacity:1" /></g><g
   id="nine"
   inkscape:label="#g4661"><path
     inkscape:label="#path4659"
     inkscape:connector-curvature="0"
     id="ninep0"
     d="m 415.24587,56.810142 60.97047,0 0,60.046678 -61.89426,0"
     style="fill:none;stroke:none;stroke-width:1px;stroke-linecap:butt;stroke-linejoin:miter;stroke-opacity:1" /></g><g
   id="lay10"
   inkscape:label="#g4666"><path
     inkscape:label="#path4664"
     inkscape:connector-curvature="0"
     id="lay10p0"
     d="m 476.21634,25.401111 62.35617,0 0,22.632978 -62.81806,0"
     style="fill:none;stroke:none;stroke-width:1px;stroke-linecap:butt;stroke-linejoin:miter;stroke-opacity:1" /></g><g
   id="place10"
   inkscape:label="#g4673"><path
     inkscape:label="#path4669"
     inkscape:connector-curvature="0"
     id="place10p0"
     d="m 476.67824,47.572192 61.89427,0 0,8.776053 -61.89427,0"
     style="fill:none;stroke:none;stroke-width:1px;stroke-linecap:butt;stroke-linejoin:miter;stroke-opacity:1" /><path
     inkscape:label="#path4671"
     inkscape:connector-curvature="0"
     id="place10p1"
     d="m 476.67824,118.70441 60.97047,0 0,6.00467 -61.89426,0"
     style="fill:none;stroke:none" /></g><g
   id="eleven"
   inkscape:label="#g4697"><path
     inkscape:label="#path4681"
     d="m 521.0204,205.77209 a 12.240284,12.702182 0 1 1 -24.48056,0 12.240284,12.702182 0 1 1 24.48056,0 z"
     sodipodi:ry="12.702182"
     sodipodi:rx="12.240284"
     sodipodi:cy="205.77209"
     sodipodi:cx="508.78012"
     id="elevenp0"
     style="color:#000000;fill:none;stroke:none;stroke-width:1;stroke-opacity:1;marker:none;visibility:visible;display:inline;overflow:visible;enable-background:accumulate"
     sodipodi:type="arc" /><path
     inkscape:label="#path4683"
     d="m 520.5585,234.17879 a 12.009336,11.085541 0 1 1 -24.01867,0 12.009336,11.085541 0 1 1 24.01867,0 z"
     sodipodi:ry="11.085541"
     sodipodi:rx="12.009336"
     sodipodi:cy="234.17879"
     sodipodi:cx="508.54916"
     id="elevenp1"
     style="fill:none;stroke:none"
     sodipodi:type="arc" /><path
     inkscape:label="#path4685"
     d="m 521.94419,260.276 a 13.395028,11.316489 0 1 1 -26.79005,0 13.395028,11.316489 0 1 1 26.79005,0 z"
     sodipodi:ry="11.316489"
     sodipodi:rx="13.395028"
     sodipodi:cy="260.276"
     sodipodi:cx="508.54916"
     id="elevenp2"
     style="fill:none;stroke:none"
     sodipodi:type="arc" /><path
     inkscape:label="#path4687"
     d="m 521.9442,286.14227 a 13.16408,11.778387 0 1 1 -26.32816,0 13.16408,11.778387 0 1 1 26.32816,0 z"
     sodipodi:ry="11.778387"
     sodipodi:rx="13.16408"
     sodipodi:cy="286.14227"
     sodipodi:cx="508.78012"
     id="elevenp3"
     style="fill:none;stroke:none"
     sodipodi:type="arc" /><path
     inkscape:label="#path4689"
     d="m 522.86799,315.01086 a 13.395028,12.93313 0 1 1 -26.79006,0 13.395028,12.93313 0 1 1 26.79006,0 z"
     sodipodi:ry="12.93313"
     sodipodi:rx="13.395028"
     sodipodi:cy="315.01086"
     sodipodi:cx="509.47296"
     id="elevenp4"
     style="fill:none;stroke:none;fill-opacity:1"
     sodipodi:type="arc" /><path
     inkscape:label="#path4691"
     d="m 521.02041,340.64618 a 12.009336,12.240284 0 1 1 -24.01867,0 12.009336,12.240284 0 1 1 24.01867,0 z"
     sodipodi:ry="12.240284"
     sodipodi:rx="12.009336"
     sodipodi:cy="340.64618"
     sodipodi:cx="509.01108"
     id="elevenp5"
     style="fill:none;stroke:none"
     sodipodi:type="arc" /><path
     inkscape:label="#path4693"
     d="m 519.63472,368.12906 a 11.547438,11.085541 0 1 1 -23.09488,0 11.547438,11.085541 0 1 1 23.09488,0 z"
     sodipodi:ry="11.085541"
     sodipodi:rx="11.547438"
     sodipodi:cy="368.12906"
     sodipodi:cx="508.08728"
     id="elevenp6"
     style="fill:none;stroke:none"
     sodipodi:type="arc" /><rect
     inkscape:label="#rect4695"
     y="305.311"
     x="551.04376"
     height="42.95647"
     width="223.0965"
     id="elevenp7"
     style="fill:none;stroke:none" /></g><g
   id="craps"
   inkscape:label="#g4723"><path
     inkscape:label="#path4707"
     d="m 546.42474,212.23866 a 12.009336,11.316489 0 1 1 -24.01867,0 12.009336,11.316489 0 1 1 24.01867,0 z"
     sodipodi:ry="11.316489"
     sodipodi:rx="12.009336"
     sodipodi:cy="212.23866"
     sodipodi:cx="534.41541"
     id="crapsp0"
     style="fill:none;stroke:none"
     sodipodi:type="arc" /><path
     inkscape:label="#path4709"
     d="m 544.11526,237.18112 a 11.316489,10.854591 0 1 1 -22.63298,0 11.316489,10.854591 0 1 1 22.63298,0 z"
     sodipodi:ry="10.854591"
     sodipodi:rx="11.316489"
     sodipodi:cy="237.18112"
     sodipodi:cx="532.79877"
     id="crapsp1"
     style="fill:none;stroke:none"
     sodipodi:type="arc" /><path
     inkscape:label="#path4711"
     d="m 545.03908,262.1236 a 11.316489,10.854591 0 1 1 -22.63297,0 11.316489,10.854591 0 1 1 22.63297,0 z"
     sodipodi:ry="10.854591"
     sodipodi:rx="11.316489"
     sodipodi:cy="262.1236"
     sodipodi:cx="533.7226"
     id="crapsp2"
     style="fill:none;stroke:none"
     sodipodi:type="arc" /><path
     inkscape:label="#path4713"
     d="m 544.11528,287.52795 a 10.623643,10.392694 0 1 1 -21.24728,0 10.623643,10.392694 0 1 1 21.24728,0 z"
     sodipodi:ry="10.392694"
     sodipodi:rx="10.623643"
     sodipodi:cy="287.52795"
     sodipodi:cx="533.49164"
     id="crapsp3"
     style="fill:none;stroke:none"
     sodipodi:type="arc" /><path
     inkscape:label="#path4715"
     d="m 545.03909,312.23947 a 11.085541,10.161745 0 1 1 -22.17108,0 11.085541,10.161745 0 1 1 22.17108,0 z"
     sodipodi:ry="10.161745"
     sodipodi:rx="11.085541"
     sodipodi:cy="312.23947"
     sodipodi:cx="533.95355"
     id="crapsp4"
     style="fill:none;stroke:none"
     sodipodi:type="arc" /><path
     inkscape:label="#path4717"
     d="m 545.501,337.18195 a 11.316489,10.161745 0 1 1 -22.63298,0 11.316489,10.161745 0 1 1 22.63298,0 z"
     sodipodi:ry="10.161745"
     sodipodi:rx="11.316489"
     sodipodi:cy="337.18195"
     sodipodi:cx="534.18451"
     id="crapsp6"
     style="fill:none;stroke:none"
     sodipodi:type="arc" /><path
     inkscape:label="#path4719"
     d="m 544.5772,362.5863 a 10.623643,10.161745 0 1 1 -21.24729,0 10.623643,10.161745 0 1 1 21.24729,0 z"
     sodipodi:ry="10.161745"
     sodipodi:rx="10.623643"
     sodipodi:cy="362.5863"
     sodipodi:cx="533.95355"
     id="crapsp7"
     style="fill:none;stroke:none"
     sodipodi:type="arc" /><rect
     inkscape:label="#rect4721"
     y="350.11508"
     x="550.58185"
     height="24.018671"
     width="224.02029"
     id="crapsp8"
     style="fill:none;stroke:none" /></g><g
   id="seven"
   inkscape:label="#g4735"><rect
     y="150.11343"
     x="550.58185"
     height="23.556774"
     width="223.5584"
     id="rect4733"
     style="fill:none;stroke:none" /></g><g
   id="hard6"
   inkscape:label="#g4743"><rect
     inkscape:label="#rect4738"
     y="174.13211"
     x="550.11993"
     height="42.032673"
     width="110.39351"
     id="hard6p0"
     style="fill:none;stroke:none" /></g><g
   id="hard10"
   inkscape:label="#g4748"><rect
     inkscape:label="#rect4746"
     y="174.24243"
     x="663.63635"
     height="41.919193"
     width="109.59596"
     id="hard10p0"
     style="fill:none;stroke:none" /></g><g
   id="hard8"
   inkscape:label="#g4753"><rect
     inkscape:label="#rect4751"
     y="218.18182"
     x="551.01007"
     height="41.919193"
     width="111.11111"
     id="hard8p0"
     style="fill:none;stroke:none" /></g><g
   id="hard4"
   inkscape:label="#g4758"><rect
     inkscape:label="#rect4756"
     y="217.67677"
     x="663.13129"
     height="43.434345"
     width="111.11111"
     id="hard4p0"
     style="fill:none;stroke:none" /></g><g
   id="three"
   inkscape:label="#g4763"><rect
     inkscape:label="#rect4761"
     y="262.3656"
     x="551.25446"
     height="41.577061"
     width="72.401436"
     id="threep0"
     style="fill:none;stroke:none" /></g><g
   id="two"
   inkscape:label="#g4768"><rect
     inkscape:label="#rect4766"
     y="262.00717"
     x="625.80646"
     height="42.293907"
     width="73.4767"
     id="twop0"
     style="fill:none;stroke:none" /></g><g
   id="twelve"
   inkscape:label="#g4773"><rect
     inkscape:label="#rect4771"
     y="261.64874"
     x="700.71686"
     height="42.293907"
     width="73.118279"
     id="twelvep0"
     style="fill:none;stroke:none" /></g></svg>